<?xml version="1.0" encoding="utf-8"?>
<!-- Generator: Adobe Illustrator 23.0.2, SVG Export Plug-In . SVG Version: 6.00 Build 0)  -->
<svg version="1.1" id="Capa_1" xmlns="http://www.w3.org/2000/svg" xmlns:xlink="http://www.w3.org/1999/xlink" x="0px" y="0px"
	 viewBox="0 0 720 900" style="enable-background:new 0 0 720 900;" xml:space="preserve">
<style type="text/css">
	.st0{fill:#D6FF23;}
	.st1{fill:#230066;}
</style>
<g>
	<polygon class="st0" points="160.63,470.8 202.08,470.8 202.08,454.66 160.63,454.66 160.63,427.72 205.79,427.72 205.79,411.43 
		143.6,411.43 143.6,515.07 206.53,515.07 206.53,498.78 160.63,498.78 	"/>
	<path class="st0" d="M277.92,451.55c-6.07-8.29-14.66-12.44-25.91-12.44c-10.22,0-18.8,3.7-26.06,11.25
		c-7.25,7.55-10.81,16.73-10.81,27.69c0,10.81,3.55,20.14,10.81,27.69c7.25,7.55,15.84,11.25,26.06,11.25
		c11.25,0,19.84-4.15,25.91-12.58v10.66h15.99v-74.03h-15.99V451.55z M271.26,495.08c-4.44,4.44-10.07,6.66-16.73,6.66
		c-6.66,0-12.29-2.22-16.73-6.66c-4.44-4.59-6.66-10.22-6.66-17.03c0-6.81,2.22-12.44,6.66-16.88c4.44-4.59,10.07-6.81,16.73-6.81
		c6.66,0,12.29,2.22,16.73,6.81c4.44,4.44,6.66,10.07,6.66,16.88C277.92,484.87,275.7,490.49,271.26,495.08z"/>
	<rect x="398.19" y="406.99" class="st0" width="15.99" height="108.08"/>
	<path class="st0" d="M466.41,439.12c-11.4,0-20.88,3.7-28.13,11.25c-7.25,7.4-10.96,16.58-10.96,27.69
		c0,11.25,3.7,20.58,11.1,27.98c7.4,7.25,17.17,10.96,29.17,10.96c14.36,0,25.17-5.33,32.42-16.14l-13.18-7.7
		c-4.29,6.07-10.66,9.18-19.1,9.18c-12.29,0-21.32-6.22-23.69-17.47h58.93c0.44-2.81,0.59-5.03,0.59-6.66
		c0-10.81-3.55-20.14-10.51-27.69C486.1,442.97,477.22,439.12,466.41,439.12z M443.91,471.84c2.22-11.25,10.51-18.21,22.36-18.21
		c10.51,0,18.95,6.22,21.17,18.21H443.91z"/>
	<path class="st0" d="M532.28,453.48v-12.44h-15.99v74.03h15.99v-37.31c0-7.55,2.22-13.03,6.81-16.29
		c4.59-3.41,9.92-4.89,15.99-4.44v-17.32C543.98,439.71,536.28,444.3,532.28,453.48z"/>
	<path class="st0" d="M346,439.17c-10.82,0-20.17,3.71-27.73,11.27c-7.56,7.56-11.42,16.76-11.42,27.73s3.86,20.17,11.42,27.73
		c7.56,7.56,16.9,11.27,27.73,11.27c10.97,0,20.17-3.71,27.73-11.27c7.56-7.56,11.42-16.76,11.42-27.73s-3.86-20.17-11.42-27.73
		C366.17,442.87,356.97,439.17,346,439.17z M362.46,494.92c-4.45,4.45-9.93,6.67-16.46,6.67c-6.52,0-12.01-2.22-16.46-6.67
		c-4.45-4.45-6.67-10.08-6.67-16.76s2.22-12.31,6.67-16.76c4.45-4.45,9.93-6.67,16.46-6.67c6.52,0,12.01,2.22,16.46,6.67
		c4.45,4.45,6.67,10.08,6.67,16.76S366.91,490.47,362.46,494.92z"/>
	<path class="st0" d="M378.41,520.39h-2.58h-3.38h-3.31c0,6.67-2.22,12.31-6.67,16.76c-4.45,4.45-9.93,6.67-16.46,6.67
		c-6.52,0-12.01-2.22-16.46-6.67c-4.45-4.45-6.67-10.08-6.67-16.76h-4.64h-2.06h-2.58h-3.75h-2.99c0,10.97,3.86,20.17,11.42,27.73
		c7.56,7.56,16.9,11.27,27.73,11.27c10.97,0,20.17-3.71,27.73-11.27c7.56-7.56,11.42-16.76,11.42-27.73h-4.47H378.41z"/>
	<path class="st0" d="M379.14,418.48c-6.07,0-10.98,4.92-10.98,10.98c0,6.07,4.92,10.98,10.98,10.98c6.07,0,10.98-4.92,10.98-10.98
		C390.12,423.4,385.21,418.48,379.14,418.48z"/>
</g>
</svg>
